<?xml version="1.0" encoding="utf-8"?>
<!-- Generator: Adobe Illustrator 26.3.1, SVG Export Plug-In . SVG Version: 6.00 Build 0)  -->
<svg version="1.1" id="Layer_1" xmlns="http://www.w3.org/2000/svg" xmlns:xlink="http://www.w3.org/1999/xlink" x="0px" y="0px"
	 width="121.2px" height="100px" viewBox="0 0 121.2 100" style="enable-background:new 0 0 121.2 100;" xml:space="preserve">
<style type="text/css">
	.st0{fill:#919191;}
</style>
<g>
	<path d="M-159.8,51.8c33.9,0.1,60.7,26.7,60.8,60.4s-27.1,61.2-60.8,61.3s-61.2-27.1-61.3-60.8l0,0
		C-221.6,78.8-194.3,51.8-159.8,51.8z"/>
	<path d="M-250.2,48.1C-284,48-310.1,21.4-310-12.8c-0.2-33.2,26.5-60.4,59.8-60.6c0.6,0,1.1,0,1.7,0c33.3,0.4,60.5,28.1,60.2,61.2
		C-188.6,21.9-215.7,48.2-250.2,48.1z"/>
	<path d="M-70.5,48.1c-34.4,0-61.4-26.7-61.5-60.7c-0.1-33.4,28-61,61.9-60.8c33.4,0.2,60.3,27.5,60.1,61c0,0.1,0,0.1,0,0.2
		C-10.1,21.7-36.5,48.1-70.5,48.1z"/>
</g>
<g>
	<path class="st0" d="M60.7,50.6c12.4,0,22.1,9.7,22.2,22S73,95,60.7,95s-22.3-9.9-22.3-22.2l0,0C38.1,60.5,48.1,50.6,60.7,50.6z"/>
	<path class="st0" d="M27.7,49.3c-12.3,0-21.8-9.7-21.8-22.2C5.9,15,15.6,5.1,27.7,5c0.2,0,0.4,0,0.6,0
		c12.1,0.1,22.1,10.2,21.9,22.3C50.2,39.7,40.3,49.4,27.7,49.3z"/>
	<path class="st0" d="M93.2,49.3c-12.5,0-22.4-9.7-22.4-22.1C70.8,15,81,4.9,93.4,5c12.2,0.1,22,10,21.9,22.2c0,0,0,0,0,0.1
		C115.2,39.7,105.6,49.3,93.2,49.3z"/>
</g>
</svg>
